<svg version="1.1" xmlns="http://www.w3.org/2000/svg" viewBox="-307.2 -1026.2 4989.4 3906.725"><desc>Created with Snap</desc><defs></defs><g><g transform="matrix(22.988,0,0,22.988,1038.0979,391.7598)"><g><path d="M78.4,66.5c-5.5,4.8-9.9,15.2-9.9,15.2s-6.9-11.4-12.9-15.3c-9.5-6.1-13.6-6.2-13.6-6.2V65c0,0,7.8,1.2,11.7,4.6   c8.2,7.1,14.8,18.5,14.8,18.5S74.4,75,80.1,70.5C88.1,64.3,95,65,95,65v-4.8C95,60.1,85.1,60.7,78.4,66.5z" style="" fill="#a3003f"></path><path d="M42,80c-6.4-3.6-17.8-4.3-17.8-4.3s8.7-10.1,10.5-17C37.5,47.9,36.2,44,36.2,44l-4.6,1.6c0,0,1.3,7.7-0.6,12.4   c-4.1,9.9-13,19.8-13,19.8s14.6,1.3,20.7,5.1c8.6,5.4,10.2,12,10.2,12l4.6-1.6C53.5,93.4,49.7,84.4,42,80z" style="" fill="#a3003f"></path><path d="M35.3,36.8c11.3-0.9,14.6-3.4,14.6-3.4l-3-3.8c0,0-6.9,3.7-12.1,3.4c-10.9-0.6-23.3-5.6-23.3-5.6s3.5,14,1.8,20.9   C10.9,58.2,5,61.8,5,61.8l3,3.8c0,0,7.5-6.5,9.1-15.1c1.3-7.1-1.7-18-1.7-18S28,37.4,35.3,36.8z" style="" fill="#a3003f"></path><path d="M37.4,17.8c7.3-1.1,16.7-7.4,16.7-7.4s-0.6,13.2,2.4,19.8c4.6,10.2,8,12.5,8,12.5l2.7-4c0,0-5.9-5.2-7.3-10.2   C56.9,18.2,57.7,5,57.7,5s-12.3,7.8-19.5,8.5c-10.2,1-15.6-3.3-15.6-3.3l-2.7,4.1C19.9,14.2,28.6,19.1,37.4,17.8z" style="" fill="#a3003f"></path><path d="M65,60.5c0,0,3.1-7.2,7.4-10.1c9-6.1,21.9-9.7,21.9-9.7s-11.5-8.9-14.5-15.4c-4.2-9.1-1.9-15.6-1.9-15.6l-4.8-1.2   c0,0-1.9,9.6,2.2,17.4c3.4,6.4,12.5,13.2,12.5,13.2S75,42.9,69.6,47.8c-8.3,7.6-9.4,11.5-9.4,11.5L65,60.5z" style="" fill="#a3003f"></path></g><desc>Created with Snap</desc><defs></defs></g><g><g transform="matrix(0.5,0,0,-0.5,0,0)"><path d="M991 289Q991 211 977 129Q964 48 936 -29Q908 -105 865 -173Q822 -240 763 -291Q704 -341 628 -370Q553 -399 461 -399Q372 -399 288 -374Q205 -348 141 -298Q77 -247 38 -173Q0 -99 0 -2Q0 56 13 112Q27 169 51 221Q76 273 111 319Q146 365 190 403L209 393Q174 325 155 252Q137 180 137 104Q137 24 159 -54Q181 -131 225 -193Q270 -254 337 -292Q404 -330 494 -330Q568 -330 621 -307Q675 -283 712 -243Q750 -202 773 -149Q797 -95 809 -35Q822 26 826 89Q831 152 831 211Q831 335 817 465Q803 595 779 727Q755 859 723 989Q691 1119 655 1243Q572 1217 498 1190Q424 1163 369 1139Q361 1136 354 1134Q348 1133 340 1133Q324 1133 311 1140Q298 1148 289 1159Q280 1171 275 1185Q270 1200 270 1214Q270 1236 278 1252Q286 1269 299 1282Q313 1295 330 1304Q347 1313 365 1319Q414 1336 480 1347Q547 1359 617 1365Q612 1381 607 1396Q603 1411 598 1427L616 1438Q628 1421 640 1404Q652 1387 664 1369Q716 1373 764 1374Q812 1376 850 1376Q875 1376 907 1375Q939 1375 972 1372Q1005 1369 1036 1363Q1067 1358 1090 1348L1083 1331Q1013 1329 920 1311Q827 1293 728 1265Q791 1155 839 1035Q888 915 922 790Q956 666 973 539Q991 413 991 289ZM1936 147L1942 143Q1925 108 1896 76Q1867 44 1831 18Q1795 -7 1755 -22Q1715 -37 1676 -37Q1622 -37 1586 -5Q1551 28 1534 74Q1495 35 1448 9Q1401 -16 1344 -16Q1293 -16 1253 2Q1214 21 1188 53Q1162 85 1148 127Q1135 169 1135 217Q1135 271 1150 322Q1165 374 1192 420Q1219 467 1256 507Q1293 547 1336 578L1348 569Q1306 509 1281 436Q1256 364 1256 289Q1256 257 1263 221Q1270 185 1286 154Q1302 123 1328 102Q1355 82 1395 82Q1429 82 1460 93Q1491 105 1520 125Q1518 137 1517 148Q1516 160 1516 172Q1516 220 1530 276Q1544 332 1567 387Q1590 443 1619 493Q1649 544 1680 580L1692 571Q1669 494 1654 412Q1639 330 1639 250Q1639 214 1643 180Q1648 147 1662 120Q1677 94 1703 78Q1729 63 1772 63Q1820 63 1862 87Q1904 112 1936 147ZM2442 215Q2442 163 2423 117Q2404 71 2370 37Q2336 3 2290 -17Q2245 -37 2192 -37Q2157 -37 2123 -26Q2089 -15 2060 5Q2032 26 2011 55Q1990 84 1981 119L2004 125Q2030 93 2064 72Q2099 51 2143 51Q2180 51 2211 67Q2243 83 2265 109Q2288 135 2300 169Q2313 204 2313 240Q2313 283 2301 311Q2289 340 2269 359Q2250 379 2226 393Q2202 408 2177 423Q2153 438 2130 457Q2108 476 2092 506Q2091 447 2072 382Q2053 317 2020 256Q1988 195 1946 142Q1904 89 1857 53L1849 67Q1881 101 1905 152Q1929 203 1944 259Q1960 316 1967 373Q1975 430 1975 477Q1975 502 1970 526Q1965 550 1965 573Q1965 601 1981 616Q1998 631 2024 631Q2044 631 2056 622Q2068 613 2078 598Q2088 584 2098 565Q2108 547 2123 527Q2139 508 2162 489Q2186 471 2223 457Q2266 441 2305 420Q2345 400 2375 372Q2406 344 2424 305Q2442 267 2442 215ZM3198 147L3204 143Q3182 106 3152 74Q3123 42 3087 18Q3052 -6 3011 -20Q2970 -33 2926 -33Q2861 -33 2811 -11Q2762 11 2726 48Q2690 86 2666 136Q2642 186 2628 240Q2614 295 2608 352Q2602 409 2602 461Q2602 509 2606 559Q2610 610 2618 663Q2587 662 2557 662Q2528 662 2499 662Q2480 662 2456 663Q2432 664 2411 671Q2390 678 2376 692Q2362 706 2362 733Q2362 748 2367 757Q2373 766 2382 770Q2392 775 2404 776Q2417 778 2430 778Q2445 778 2501 773Q2557 768 2636 762Q2661 880 2700 994Q2740 1108 2790 1202L2804 1202Q2772 1093 2747 982Q2723 871 2711 757Q2784 752 2861 748Q2939 745 3013 745Q3122 745 3190 747Q3258 749 3297 752Q3343 756 3366 760L3370 743Q3310 729 3233 716Q3156 704 3069 694Q2982 685 2889 678Q2796 671 2704 667Q2702 647 2702 626Q2702 606 2702 586Q2702 538 2706 480Q2711 422 2723 363Q2735 305 2755 249Q2776 194 2809 151Q2843 109 2890 83Q2937 57 3001 57Q3060 57 3107 83Q3155 109 3198 147ZM3654 1438L3672 1430Q3668 1416 3664 1394Q3661 1373 3657 1347Q3730 1341 3808 1331Q3887 1321 3962 1305Q4037 1290 4105 1269Q4174 1249 4229 1223L4221 1204Q4111 1218 4001 1223Q3892 1229 3783 1229Q3748 1229 3712 1227Q3677 1225 3641 1223Q3633 1149 3625 1058Q3617 968 3610 868Q3604 768 3599 661Q3595 555 3593 448Q3591 342 3592 239Q3594 137 3600 44Q3606 -48 3617 -127Q3628 -206 3645 -264Q3647 -273 3650 -283Q3654 -292 3654 -301Q3654 -317 3646 -327Q3638 -336 3621 -336Q3599 -336 3577 -324Q3556 -312 3539 -301Q3509 -281 3493 -237Q3477 -193 3470 -142Q3463 -91 3462 -42Q3461 7 3461 39Q3461 115 3464 207Q3468 299 3474 400Q3481 502 3491 609Q3501 717 3515 822Q3529 928 3546 1029Q3564 1130 3586 1219Q3512 1214 3438 1205Q3365 1197 3295 1185Q3226 1173 3162 1158Q3099 1144 3045 1126Q3033 1120 3019 1120Q2990 1120 2990 1149Q2990 1169 3001 1190Q3012 1211 3023 1227Q3040 1251 3073 1269Q3107 1288 3150 1302Q3194 1317 3242 1326Q3291 1336 3337 1342Q3383 1349 3423 1351Q3464 1354 3490 1354Q3520 1354 3553 1352Q3586 1351 3621 1349Q3637 1399 3654 1438ZM4709 147L4717 143Q4691 105 4654 72Q4618 39 4574 15Q4531 -9 4483 -23Q4436 -37 4388 -37Q4320 -37 4261 -20Q4202 -2 4158 34Q4114 70 4089 124Q4064 179 4064 252Q4064 324 4090 386Q4117 449 4163 495Q4210 542 4273 569Q4336 596 4408 596Q4442 596 4471 586Q4501 577 4523 558Q4545 540 4557 513Q4570 486 4570 451Q4570 409 4553 377Q4536 345 4508 321Q4480 297 4444 281Q4409 265 4370 255Q4332 245 4294 240Q4257 236 4226 236L4202 236Q4215 145 4274 97Q4333 49 4437 49Q4511 49 4581 75Q4652 101 4709 147ZM4199 289L4199 266L4224 266Q4260 266 4298 277Q4336 289 4366 311Q4397 334 4417 367Q4437 400 4437 442Q4437 483 4419 510Q4402 537 4359 537Q4315 537 4284 510Q4254 484 4235 445Q4216 407 4207 364Q4199 322 4199 289ZM5227 215Q5227 163 5208 117Q5189 71 5155 37Q5121 3 5075 -17Q5030 -37 4977 -37Q4942 -37 4908 -26Q4874 -15 4845 5Q4817 26 4796 55Q4775 84 4766 119L4789 125Q4815 93 4849 72Q4884 51 4928 51Q4965 51 4996 67Q5028 83 5050 109Q5073 135 5085 169Q5098 204 5098 240Q5098 283 5086 311Q5074 340 5054 359Q5035 379 5011 393Q4987 408 4962 423Q4938 438 4915 457Q4893 476 4877 506Q4876 447 4857 382Q4838 317 4805 256Q4773 195 4731 142Q4689 89 4642 53L4634 67Q4666 101 4690 152Q4714 203 4729 259Q4745 316 4752 373Q4760 430 4760 477Q4760 502 4755 526Q4750 550 4750 573Q4750 601 4766 616Q4783 631 4809 631Q4829 631 4841 622Q4853 613 4863 598Q4873 584 4883 565Q4893 547 4908 527Q4924 508 4947 489Q4971 471 5008 457Q5051 441 5090 420Q5130 400 5160 372Q5191 344 5209 305Q5227 267 5227 215ZM5983 147L5989 143Q5967 106 5937 74Q5908 42 5872 18Q5837 -6 5796 -20Q5755 -33 5711 -33Q5646 -33 5596 -11Q5547 11 5511 48Q5475 86 5451 136Q5427 186 5413 240Q5399 295 5393 352Q5387 409 5387 461Q5387 509 5391 559Q5395 610 5403 663Q5372 662 5342 662Q5313 662 5284 662Q5265 662 5241 663Q5217 664 5196 671Q5175 678 5161 692Q5147 706 5147 733Q5147 748 5152 757Q5158 766 5167 770Q5177 775 5189 776Q5202 778 5215 778Q5230 778 5286 773Q5342 768 5421 762Q5446 880 5485 994Q5525 1108 5575 1202L5589 1202Q5557 1093 5532 982Q5508 871 5496 757Q5569 752 5646 748Q5724 745 5798 745Q5907 745 5975 747Q6043 749 6082 752Q6128 756 6151 760L6155 743Q6095 729 6018 716Q5941 704 5854 694Q5767 685 5674 678Q5581 671 5489 667Q5487 647 5487 626Q5487 606 5487 586Q5487 538 5491 480Q5496 422 5508 363Q5520 305 5540 249Q5561 194 5594 151Q5628 109 5675 83Q5722 57 5786 57Q5845 57 5892 83Q5940 109 5983 147ZM6849 -61L6866 -68Q6855 -140 6816 -194Q6778 -247 6723 -282Q6669 -316 6603 -333Q6538 -350 6472 -350Q6425 -350 6375 -338Q6325 -326 6274 -312Q6224 -298 6175 -286Q6127 -274 6083 -274Q6062 -274 6038 -279Q6015 -284 5992 -293Q5970 -302 5951 -316Q5932 -329 5921 -346L5905 -338Q5909 -296 5926 -261Q5944 -226 5971 -200Q5999 -174 6034 -160Q6070 -145 6112 -145Q6122 -145 6131 -145Q6141 -145 6151 -146Q6109 -46 6081 73Q6054 193 6038 317Q6022 442 6015 565Q6009 688 6009 795Q6009 831 6010 879Q6012 927 6017 980Q6022 1034 6031 1088Q6041 1142 6058 1190Q6075 1238 6100 1276Q6125 1314 6161 1335Q6180 1346 6200 1355Q6221 1364 6243 1364Q6257 1364 6267 1357Q6278 1351 6278 1335Q6278 1326 6275 1318Q6273 1311 6270 1303Q6254 1267 6237 1233Q6221 1199 6210 1163Q6184 1076 6167 974Q6151 872 6143 761Q6135 650 6134 532Q6133 415 6138 298Q6144 182 6154 68Q6164 -45 6178 -149Q6220 -155 6263 -165Q6307 -174 6351 -184Q6396 -193 6442 -200Q6488 -207 6536 -207Q6581 -207 6626 -200Q6672 -192 6713 -175Q6755 -158 6790 -130Q6825 -102 6849 -61ZM7328 524Q7328 513 7320 504Q7312 496 7301 496Q7292 496 7282 501Q7272 507 7259 514Q7247 521 7230 526Q7214 532 7193 532Q7144 532 7105 501Q7067 471 7040 426Q7014 381 7000 330Q6986 279 6986 238Q6986 209 6991 181Q6996 154 7008 131Q7021 109 7043 95Q7065 82 7099 82Q7135 82 7168 95Q7201 109 7230 131Q7231 163 7240 198Q7250 234 7265 268Q7280 303 7299 334Q7319 365 7340 389L7353 381Q7342 347 7337 311Q7332 275 7332 240Q7332 204 7338 172Q7344 140 7359 116Q7374 93 7400 79Q7426 66 7467 66Q7517 66 7559 89Q7601 112 7633 147L7641 143Q7623 108 7594 76Q7565 44 7529 18Q7494 -7 7454 -22Q7414 -37 7375 -37Q7320 -37 7285 -6Q7250 26 7237 74Q7195 32 7143 3Q7092 -25 7035 -25Q6993 -25 6960 -10Q6928 6 6906 32Q6884 58 6872 93Q6861 129 6861 168Q6861 213 6875 260Q6890 308 6915 354Q6941 400 6976 441Q7011 482 7052 513Q7094 544 7140 562Q7186 580 7234 580Q7245 580 7261 577Q7277 575 7292 569Q7307 563 7317 552Q7328 541 7328 524ZM8448 151L8456 147Q8439 111 8414 75Q8390 40 8360 11Q8330 -17 8294 -35Q8258 -53 8217 -53Q8172 -53 8139 -30Q8106 -6 8083 32Q8060 71 8045 121Q8030 171 8020 224Q8010 277 8003 330Q7997 383 7991 427Q7959 385 7933 338Q7907 291 7883 240Q7859 190 7836 138Q7813 86 7787 35Q7781 24 7775 11Q7769 -1 7761 -12Q7753 -22 7742 -29Q7731 -36 7716 -36Q7702 -36 7692 -31Q7683 -26 7676 -19Q7670 -11 7666 -2Q7663 7 7661 15Q7649 58 7639 123Q7630 188 7623 262Q7616 336 7612 412Q7609 489 7609 554Q7609 647 7621 745Q7633 844 7658 938Q7684 1032 7723 1115Q7763 1199 7817 1262Q7871 1325 7940 1362Q8010 1399 8096 1399Q8153 1399 8186 1365Q8219 1332 8219 1270Q8219 1177 8186 1091Q8154 1006 8103 928Q8053 850 7991 780Q7930 711 7873 652L7860 662Q7885 690 7913 731Q7942 773 7969 821Q7997 870 8022 923Q8047 977 8066 1029Q8085 1081 8096 1129Q8107 1178 8107 1218Q8107 1239 8103 1258Q8099 1277 8089 1291Q8079 1306 8063 1314Q8048 1323 8026 1323Q7982 1323 7943 1289Q7905 1255 7873 1197Q7841 1140 7816 1064Q7792 988 7774 905Q7757 822 7748 737Q7739 652 7739 575Q7739 523 7739 470Q7739 417 7741 359Q7744 301 7750 236Q7757 171 7769 95Q7813 209 7862 318Q7911 428 7968 519Q7976 532 7984 545Q7993 558 8003 568Q8013 579 8025 586Q8037 593 8051 593Q8068 593 8078 583Q8088 574 8094 560Q8100 546 8102 530Q8105 514 8107 501Q8111 472 8116 426Q8121 380 8128 327Q8135 275 8145 222Q8156 169 8172 126Q8189 84 8212 57Q8235 30 8267 30Q8293 30 8319 41Q8345 52 8369 69Q8393 86 8413 108Q8434 130 8448 151ZM8566 72Q8566 91 8573 108Q8580 125 8592 137Q8604 150 8621 157Q8638 164 8658 164Q8677 164 8694 157Q8711 150 8723 137Q8736 125 8743 108Q8750 91 8750 72Q8750 53 8743 36Q8736 19 8723 6Q8711 -6 8694 -13Q8677 -20 8658 -20Q8639 -20 8622 -13Q8605 -6 8592 6Q8580 19 8573 36Q8566 53 8566 72ZM8598 1294Q8598 1310 8609 1322Q8620 1334 8635 1342Q8650 1350 8665 1354Q8681 1358 8690 1358Q8708 1358 8719 1350Q8731 1343 8731 1309Q8731 1271 8728 1202Q8725 1133 8719 1046Q8714 959 8707 859Q8701 760 8694 660Q8687 561 8680 467Q8673 374 8668 300L8642 300Q8634 447 8626 580Q8618 714 8612 837Q8606 960 8602 1073Q8598 1187 8598 1294Z" style="" fill="#424077"></path></g></g></g></svg>